name rise31.4854peak64.571fall78.6902.mot
datacolumns 19
datarows 24
range 20.44659100000000 20.48492700000000
endheader
time	ground_force1_vx	ground_force1_vy	ground_force1_vz	ground_force1_px	ground_force1_py	ground_force1_pz	ground_force2_vx	ground_force2_vy	ground_force2_vz	ground_force2_px	ground_force2_py	ground_force2_pz	ground_torque1_x	ground_torque1_y	ground_torque1_z	ground_torque2_x	ground_torque2_y	ground_torque2_z	
20.44659100000000	3.88401600000000	686.57065000000000	41.74007300000000	0.21238900000000	0.00000000000000	0.10270400000000	0.00000000000000	0.00000000000000	0.00000000000000	0.00000000000000	0.00000000000000	0.00000000000000	0.00000000000000	16.15911000000000	0.00000000000000	0.00000000000000	0.00000000000000	0.00000000000000	
20.44825500000000	3.54914400000000	687.26265599999999	41.69409600000000	0.21188300000000	0.00000000000000	0.10265100000000	0.00000000000000	0.00000000000000	0.00000000000000	0.00000000000000	0.00000000000000	0.00000000000000	0.00000000000000	16.17997300000000	0.00000000000000	0.00000000000000	0.00000000000000	0.00000000000000	
20.44992100000000	3.20581800000000	688.00103799999999	41.65254300000000	0.21135400000000	0.00000000000000	0.10259800000000	0.00000000000000	0.00000000000000	0.00000000000000	0.00000000000000	0.00000000000000	0.00000000000000	0.00000000000000	16.20451400000000	0.00000000000000	0.00000000000000	0.00000000000000	0.00000000000000	
20.45159300000000	2.85340300000000	688.78413899999998	41.61520500000000	0.21080000000000	0.00000000000000	0.10254800000000	0.00000000000000	0.00000000000000	0.00000000000000	0.00000000000000	0.00000000000000	0.00000000000000	0.00000000000000	16.23263700000000	0.00000000000000	0.00000000000000	0.00000000000000	0.00000000000000	
20.45325400000000	2.49130600000000	689.61033899999995	41.58188100000000	0.21022000000000	0.00000000000000	0.10250000000000	0.00000000000000	0.00000000000000	0.00000000000000	0.00000000000000	0.00000000000000	0.00000000000000	0.00000000000000	16.26425400000000	0.00000000000000	0.00000000000000	0.00000000000000	0.00000000000000	
20.45492200000000	2.11897800000000	690.47806100000003	41.55237900000000	0.20961000000000	0.00000000000000	0.10245400000000	0.00000000000000	0.00000000000000	0.00000000000000	0.00000000000000	0.00000000000000	0.00000000000000	0.00000000000000	16.29927800000000	0.00000000000000	0.00000000000000	0.00000000000000	0.00000000000000	
20.45658700000000	1.73591300000000	691.38578199999995	41.52651500000000	0.20897000000000	0.00000000000000	0.10241000000000	0.00000000000000	0.00000000000000	0.00000000000000	0.00000000000000	0.00000000000000	0.00000000000000	0.00000000000000	16.33762900000000	0.00000000000000	0.00000000000000	0.00000000000000	0.00000000000000	
20.45826100000000	1.34165200000000	692.33203300000002	41.50411400000000	0.20829900000000	0.00000000000000	0.10236900000000	0.00000000000000	0.00000000000000	0.00000000000000	0.00000000000000	0.00000000000000	0.00000000000000	0.00000000000000	16.37923300000000	0.00000000000000	0.00000000000000	0.00000000000000	0.00000000000000	
20.45992300000000	0.93578500000000	693.31540500000006	41.48501300000000	0.20759600000000	0.00000000000000	0.10233000000000	0.00000000000000	0.00000000000000	0.00000000000000	0.00000000000000	0.00000000000000	0.00000000000000	0.00000000000000	16.42401900000000	0.00000000000000	0.00000000000000	0.00000000000000	0.00000000000000	
20.46158900000000	0.51794900000000	694.33455500000002	41.46905900000000	0.20685900000000	0.00000000000000	0.10229300000000	0.00000000000000	0.00000000000000	0.00000000000000	0.00000000000000	0.00000000000000	0.00000000000000	0.00000000000000	16.47192200000000	0.00000000000000	0.00000000000000	0.00000000000000	0.00000000000000	
20.46326000000000	0.08783300000000	695.38821199999995	41.45611000000000	0.20608900000000	0.00000000000000	0.10225900000000	0.00000000000000	0.00000000000000	0.00000000000000	0.00000000000000	0.00000000000000	0.00000000000000	0.00000000000000	16.52288200000000	0.00000000000000	0.00000000000000	0.00000000000000	0.00000000000000	
20.46492100000000	-0.35482600000000	696.47517600000003	41.44603800000000	0.20528500000000	0.00000000000000	0.10222800000000	0.00000000000000	0.00000000000000	0.00000000000000	0.00000000000000	0.00000000000000	0.00000000000000	0.00000000000000	16.57684200000000	0.00000000000000	0.00000000000000	0.00000000000000	0.00000000000000	
20.46659300000000	-0.81023500000000	697.59432400000003	41.43872600000000	0.20444800000000	0.00000000000000	0.10219800000000	0.00000000000000	0.00000000000000	0.00000000000000	0.00000000000000	0.00000000000000	0.00000000000000	0.00000000000000	16.63375000000000	0.00000000000000	0.00000000000000	0.00000000000000	0.00000000000000	
20.46826100000000	-1.27855600000000	698.74461199999996	41.43407200000000	0.20357700000000	0.00000000000000	0.10217100000000	0.00000000000000	0.00000000000000	0.00000000000000	0.00000000000000	0.00000000000000	0.00000000000000	0.00000000000000	16.69355800000000	0.00000000000000	0.00000000000000	0.00000000000000	0.00000000000000	
20.46992100000000	-1.75989400000000	699.92507699999999	41.43198700000000	0.20267400000000	0.00000000000000	0.10214700000000	0.00000000000000	0.00000000000000	0.00000000000000	0.00000000000000	0.00000000000000	0.00000000000000	0.00000000000000	16.75622200000000	0.00000000000000	0.00000000000000	0.00000000000000	0.00000000000000	
20.47159200000000	-2.25430500000000	701.13484100000005	41.43239700000000	0.20173900000000	0.00000000000000	0.10212500000000	0.00000000000000	0.00000000000000	0.00000000000000	0.00000000000000	0.00000000000000	0.00000000000000	0.00000000000000	16.82169800000000	0.00000000000000	0.00000000000000	0.00000000000000	0.00000000000000	
20.47326000000000	-2.76179700000000	702.37310600000001	41.43524300000000	0.20077300000000	0.00000000000000	0.10210500000000	0.00000000000000	0.00000000000000	0.00000000000000	0.00000000000000	0.00000000000000	0.00000000000000	0.00000000000000	16.88994800000000	0.00000000000000	0.00000000000000	0.00000000000000	0.00000000000000	
20.47492100000000	-3.28232300000000	703.63916300000005	41.44048300000000	0.19977800000000	0.00000000000000	0.10208700000000	0.00000000000000	0.00000000000000	0.00000000000000	0.00000000000000	0.00000000000000	0.00000000000000	0.00000000000000	16.96093400000000	0.00000000000000	0.00000000000000	0.00000000000000	0.00000000000000	
20.47658700000000	-3.81579000000000	704.93238199999996	41.44808900000000	0.19875400000000	0.00000000000000	0.10207100000000	0.00000000000000	0.00000000000000	0.00000000000000	0.00000000000000	0.00000000000000	0.00000000000000	0.00000000000000	17.03462100000000	0.00000000000000	0.00000000000000	0.00000000000000	0.00000000000000	
20.47825700000000	-4.36205700000000	706.25221999999997	41.45805100000000	0.19770400000000	0.00000000000000	0.10205700000000	0.00000000000000	0.00000000000000	0.00000000000000	0.00000000000000	0.00000000000000	0.00000000000000	0.00000000000000	17.11097400000000	0.00000000000000	0.00000000000000	0.00000000000000	0.00000000000000	
20.47992600000000	-4.92093600000000	707.59821399999998	41.47037400000000	0.19662900000000	0.00000000000000	0.10204500000000	0.00000000000000	0.00000000000000	0.00000000000000	0.00000000000000	0.00000000000000	0.00000000000000	0.00000000000000	17.18995700000000	0.00000000000000	0.00000000000000	0.00000000000000	0.00000000000000	
20.48158800000000	-5.49219200000000	708.96998199999996	41.48508300000000	0.19553100000000	0.00000000000000	0.10203400000000	0.00000000000000	0.00000000000000	0.00000000000000	0.00000000000000	0.00000000000000	0.00000000000000	0.00000000000000	17.27153700000000	0.00000000000000	0.00000000000000	0.00000000000000	0.00000000000000	
20.48326200000000	-6.07555000000000	710.36721999999997	41.50221800000000	0.19441200000000	0.00000000000000	0.10202500000000	0.00000000000000	0.00000000000000	0.00000000000000	0.00000000000000	0.00000000000000	0.00000000000000	0.00000000000000	17.35567900000000	0.00000000000000	0.00000000000000	0.00000000000000	0.00000000000000	
20.48492700000000	-6.67068900000000	711.78969700000005	41.52183900000000	0.19327500000000	0.00000000000000	0.10201800000000	0.00000000000000	0.00000000000000	0.00000000000000	0.00000000000000	0.00000000000000	0.00000000000000	0.00000000000000	17.44234600000000	0.00000000000000	0.00000000000000	0.00000000000000	0.00000000000000	
